<svg width="20" height="25" viewBox="0 0 20 25" fill="none" xmlns="http://www.w3.org/2000/svg">
<path d="M10 0C12.6522 0 15.1957 1.05357 17.0711 2.92893C18.9464 4.8043 20 7.34783 20 10C20 14.2256 17.0308 18.8308 11.1692 23.8646C10.8433 24.1446 10.4278 24.2984 9.99808 24.298C9.56841 24.2976 9.15313 24.1431 8.82769 23.8626L8.44 23.5262C2.83795 18.6236 0 14.1313 0 10C0 7.34783 1.05357 4.8043 2.92893 2.92893C4.8043 1.05357 7.34784 0 10 0ZM10 6.15385C8.97994 6.15385 8.00165 6.55906 7.28036 7.28036C6.55907 8.00165 6.15385 8.97994 6.15385 10C6.15385 11.0201 6.55907 11.9983 7.28036 12.7196C8.00165 13.4409 8.97994 13.8462 10 13.8462C11.0201 13.8462 11.9983 13.4409 12.7196 12.7196C13.4409 11.9983 13.8462 11.0201 13.8462 10C13.8462 8.97994 13.4409 8.00165 12.7196 7.28036C11.9983 6.55906 11.0201 6.15385 10 6.15385Z" fill="#353764"/>
</svg>
